<svg xmlns="http://www.w3.org/2000/svg" viewBox="0 0 37.84 37.67"><defs><style>.cls-1{fill:#00b900;}.cls-2{fill:#fff;}</style></defs><title>資產 343</title><g id="圖層_2" data-name="圖層 2"><g id="圖層_1-2" data-name="圖層 1"><rect class="cls-1" width="37.84" height="37.67" rx="8.83"/><path class="cls-2" d="M18.92,6.07s-8.56-.79-12.54,6.76,3.28,13.56,7,14.44a12.77,12.77,0,0,0,3.4.78A1.31,1.31,0,0,1,18,29.75c-.35,1.72-1,2.7,1.24,2S29.57,25.61,31.77,21,32.58,6.74,18.92,6.07Z"/><rect class="cls-1" x="15.23" y="14.24" width="1.35" height="6.12" rx="0.12"/><path class="cls-1" d="M22.62,14.24h-1.1a.12.12,0,0,0-.12.12v3.58l-2.55-3.65a.15.15,0,0,0-.11,0H17.62a.12.12,0,0,0-.12.12v5.88a.12.12,0,0,0,.12.12h1.11a.12.12,0,0,0,.12-.12v-3.6L21.4,20.3l0,0,0,0h1.16a.12.12,0,0,0,.12-.12V14.36A.12.12,0,0,0,22.62,14.24Z"/><path class="cls-1" d="M14.22,19H11.63V14.36a.12.12,0,0,0-.12-.12H10.4a.13.13,0,0,0-.12.12v5.88a.12.12,0,0,0,.12.12h3.82a.12.12,0,0,0,.12-.12V19.13A.13.13,0,0,0,14.22,19Z"/><path class="cls-1" d="M27.58,15.59a.12.12,0,0,0,.12-.12V14.36a.13.13,0,0,0-.12-.12h-3.8a.12.12,0,0,0-.12.12v5.88a.12.12,0,0,0,.12.12h3.8a.12.12,0,0,0,.12-.12V19.13a.13.13,0,0,0-.12-.12H25V18h2.58a.13.13,0,0,0,.12-.13v-1.1a.12.12,0,0,0-.12-.12H25v-1Z"/></g></g></svg>