<svg id="圖層_1" data-name="圖層 1" xmlns="http://www.w3.org/2000/svg" viewBox="0 0 15.32 438.81"><defs><style>.cls-1{fill:#909298;}</style></defs><path class="cls-1" d="M2387,561.16c0,.88-.12,1.4-.65,1.73a4.28,4.28,0,0,1-2.22.35,6.6,6.6,0,0,0-.52-1.84c.58,0,1.17,0,1.36,0s.28-.06.28-.29V558h-1.68a17.06,17.06,0,0,1-1.12,5.3,6.83,6.83,0,0,0-1.54-.86c1-2.18,1.06-5.4,1.06-7.73v-5.81h5Zm-1.75-5v-1.94h-1.57v.44c0,.48,0,1,0,1.5Zm-1.57-5.55v1.85h1.57v-1.85Zm12.06,4.11a14.83,14.83,0,0,1-1.92,5.36,7.34,7.34,0,0,0,2.36,1.68,7.82,7.82,0,0,0-1.18,1.49,10.08,10.08,0,0,1-2.27-1.74,9.15,9.15,0,0,1-2.1,1.71,6,6,0,0,0-.94-1.28v1.31h-1.81V548.87h7.36V552c0,.83-.18,1.28-.85,1.54a8.56,8.56,0,0,1-2.75.24,6.22,6.22,0,0,0-.56-1.6c.8,0,1.75,0,2,0s.34-.07.34-.26v-1.28h-3.73v3.8h4.62l.29-.07Zm-6.05,7a7.46,7.46,0,0,0,1.95-1.63,16.45,16.45,0,0,1-1.85-4h-.1Zm1.71-5.6a12.9,12.9,0,0,0,1.23,2.5,10.88,10.88,0,0,0,1-2.5Z" transform="translate(-2380.93 -548.86)"/><path class="cls-1" d="M2394.86,570.68a8.15,8.15,0,0,1-1.6,2.34,12.82,12.82,0,0,0,2.94.94,7.16,7.16,0,0,0-1.2,1.62,11.69,11.69,0,0,1-3.26-1.38,13,13,0,0,1-3.26,1.35,7.1,7.1,0,0,0-.45-.68,19,19,0,0,1-.79,2.68L2386,577a21.26,21.26,0,0,0,.52-2.2h-.85v5.63c0,.86-.13,1.38-.69,1.66a4.61,4.61,0,0,1-2.25.34,6.39,6.39,0,0,0-.55-1.81c.59,0,1.23,0,1.44,0s.26-.05.26-.24v-3.43a9.54,9.54,0,0,1-2,3A11.75,11.75,0,0,0,2381,578a10.17,10.17,0,0,0,2.27-3.29h-2v-1.67h3.66a24.1,24.1,0,0,0-3.09-1.55l1.2-1.22c.39.15.83.32,1.27.51a9.44,9.44,0,0,0,1-1h-3.83v-1.6h5.16l.29-.07,1.21.77a11.92,11.92,0,0,1-2.33,2.64,10.3,10.3,0,0,1,1.17.7l-.79.82h.77l.26-.08,1.15.39-.07.36a9.52,9.52,0,0,0,1.95-.73,9,9,0,0,1-1.13-1.33q-.36.38-.72.69a13.73,13.73,0,0,0-1.55-1.08,9.39,9.39,0,0,0,3.05-3.81l1.78.49c-.18.38-.37.75-.59,1.12h4.71v1.58Zm.75,5.73s0,.5-.07.72c-.25,2.77-.54,4-1,4.51a1.75,1.75,0,0,1-1.17.56,12,12,0,0,1-1.79,0,4.34,4.34,0,0,0-.51-1.76c.57.06,1.11.08,1.37.08a.66.66,0,0,0,.51-.18c.23-.21.43-.9.61-2.38h-1.85a6.43,6.43,0,0,1-4.21,4.45,5.38,5.38,0,0,0-1.1-1.48,5.13,5.13,0,0,0,3.34-3h-1.94v-1.59h2.34a12.84,12.84,0,0,0,.16-1.42h1.9c0,.48-.09,1-.16,1.42Zm-5.25-5.73a6.11,6.11,0,0,0,1.33,1.36,5,5,0,0,0,1.06-1.36Z" transform="translate(-2380.93 -548.86)"/><path class="cls-1" d="M2393.31,591.45a10.82,10.82,0,0,1-2.81,3,23.62,23.62,0,0,0,5.63,1.18,8,8,0,0,0-1.2,1.85c-.59-.08-1.14-.18-1.7-.29v4.48h-1.95v-.48h-5.39v.51H2384v-4.4c-.69.18-1.38.32-2.08.45a8,8,0,0,0-.91-1.7,21.61,21.61,0,0,0,5.69-1.54,13.06,13.06,0,0,1-1.42-1.18,14.84,14.84,0,0,1-2,1.07,6,6,0,0,0-1.27-1.42,9.08,9.08,0,0,0,4.48-3.2h-3v1.79h-1.87V588h5.94c-.17-.37-.36-.74-.52-1l1.9-.47c.24.47.56,1,.82,1.51h5.58v3.52h-2v-1.79h-6.65l1.79.36c-.16.21-.33.44-.51.66h3.57l.32-.08Zm-2,8.15v-1.38h-5.39v1.38Zm0-3a20.26,20.26,0,0,1-2.74-1.07,19.07,19.07,0,0,1-2.52,1.07Zm-4.61-4.4a8.55,8.55,0,0,0,1.89,1.31,8.88,8.88,0,0,0,1.82-1.38h-3.63Z" transform="translate(-2380.93 -548.86)"/><path class="cls-1" d="M2395.18,610.12v6.66h-1.95V616h-7.4a9.37,9.37,0,0,1-2.37,4.95,7.57,7.57,0,0,0-1.47-1.3c2.08-2.11,2.27-5.27,2.27-7.6v-4.65a53.09,53.09,0,0,0,9-1.47l1.51,1.44a55.56,55.56,0,0,1-8.64,1.44v1.33Zm-1.95,4.1v-2.34h-7.05V612c0,.66,0,1.41-.1,2.18Z" transform="translate(-2380.93 -548.86)"/><path class="cls-1" d="M2396.13,649.43v1.36H2387v-1.36h3.55v-.7h-2.91v-1.27h2.91v-.64h-3.31v-.59c-.41,1-.86,2.18-1.19,2.93l-1.06-.4v.85h1.71v1.78H2385v1.12l.67-.48c.32.36,1.41,1.93,1.66,2.32l-1.2,1.37a24.05,24.05,0,0,0-1.13-2.43v6h-1.66V654a9.32,9.32,0,0,1-1.54,3.49,14,14,0,0,0-.78-2,9,9,0,0,0,1.47-3.5l.85.3v-.89h-2v-1.78h2v-5.3H2385v4.1a23.32,23.32,0,0,0,.83-3l1.42.45v-.36h3.31v-1.17h1.84v1.17h3.49v1.36h-3.49v.64h3.17v1.27h-3.17v.7Zm-14.15-.35a25.58,25.58,0,0,0-.69-3.42l1.31-.32a30.88,30.88,0,0,1,.77,3.39Zm13.38,8.44c0,.8-.14,1.21-.7,1.45a5.79,5.79,0,0,1-2.29.26,5.58,5.58,0,0,0-.5-1.51c.6,0,1.27,0,1.46,0s.27-.06.27-.24v-.67h-4.33a5.55,5.55,0,0,1-1.17,2.54,7.52,7.52,0,0,0-1.33-1.2,5.91,5.91,0,0,0,1-3.87v-2.85h7.56Zm-1.76-1.92v-.77h-4.09c0,.25,0,.51-.05.77Zm-4.09-2.76v.75h4.09v-.75Z" transform="translate(-2380.93 -548.86)"/><path class="cls-1" d="M2385.48,671.37a18,18,0,0,1-.75,3.27c.92,1.68,2.73,1.88,5.38,1.9,1.7,0,4.34-.1,6.13-.27a5.71,5.71,0,0,0-.59,1.76c-1.67.11-3.71.14-5.58.14-3,0-4.82-.3-6-2a6.93,6.93,0,0,1-1.89,2.27,5.9,5.9,0,0,0-1.21-1.28,7.24,7.24,0,0,0,2.68-4.63h-1a1.84,1.84,0,0,0-.92.24,11.21,11.21,0,0,0-.61-1.52,1.37,1.37,0,0,0,.77-.51,20.56,20.56,0,0,0,1.29-2h-1.81v-1.51h2.79l.25-.1,1.15.45c-.49.88-1.37,2.39-2.09,3.49h.88l.3-.05Zm-1.95-4.4a22,22,0,0,0-2.08-2.58l1.41-.88a29.87,29.87,0,0,1,2.14,2.4Zm6.81.46a7,7,0,0,0-.27,1.3c-3.27.54-3.78.64-4.1.8a4.89,4.89,0,0,0-.62-1.41,1,1,0,0,0,.53-1V664h4.43v3h-3v.79Zm5.43,6.45h-2.95a25.42,25.42,0,0,1,2.65,1.54l-1.69.78a14.38,14.38,0,0,0-2.56-1.66l1-.66h-3.36l1.36.47a11.7,11.7,0,0,1-3.13,1.92,11.54,11.54,0,0,0-1.43-1.14,10.56,10.56,0,0,0,2.74-1.25h-2.93v-1.37H2388v-1H2386v-1.37H2388v-.85h1.74v.85h1.74v-.85h1.76v.85h2v1.37h-2v1h2.54Zm-8.42-8.69v.72h1.37v-.72Zm2.38,7.32h1.74v-1h-1.74Zm3-3.44c-1.43,0-1.79-.55-1.79-1.93V664h4.55v3h-3v.08c0,.45.06.61.4.61h1.64a4.93,4.93,0,0,0,1.11-.1c0,.4.08.93.13,1.28a5,5,0,0,1-1.19.12Zm-.28-3.86v.72h1.42v-.72Z" transform="translate(-2380.93 -548.86)"/><path class="cls-1" d="M2395.86,694.06h-3.7a21.93,21.93,0,0,1,3.6,2.18l-1.49,1.32a23.45,23.45,0,0,0-4-2.59l1.09-.91h-1.84v3.58h-1.9v-3.58h-2.69l1.87.62a11.51,11.51,0,0,1-3.85,2.69,14.08,14.08,0,0,0-1.6-1.26,8.72,8.72,0,0,0,3.52-2.05h-3.49v-1.57h6.24v-1.1h1.9v1.1h6.37Zm-2-1.95a34.29,34.29,0,0,0-4.54-1.38A23.39,23.39,0,0,1,2382,692a5.12,5.12,0,0,0-.65-1.57,34.41,34.41,0,0,0,4.7-.4c-.9-.18-1.79-.34-2.74-.48a18,18,0,0,0,1.33-1.31h-3.18v-1.49H2386a17.13,17.13,0,0,0,1-1.39h-3.47v.88h-1.76v-2.45h5.68c-.11-.24-.23-.47-.34-.67l2-.41a11,11,0,0,1,.62,1.08h5.71v2.45h-1.84v-.88h-5.87l1.15.35c-.25.33-.51.69-.81,1h3.08a7.69,7.69,0,0,0,.39-1l1.85.37a5.48,5.48,0,0,1-.22.61h2.51v1.49h-3.26a5.8,5.8,0,0,1-1.22,1.37c1.73.42,3.3.87,4.5,1.28Zm-7.21-3.89c-.13.14-.26.27-.4.4.88.14,1.77.32,2.62.49a5.31,5.31,0,0,0,1.23-.89Z" transform="translate(-2380.93 -548.86)"/><path class="cls-1" d="M2391.52,713.05v-8.79h-2.68c-.12.56-.23,1.16-.36,1.73h1.43l.3-.06,1.1.33c-.57,5.17-2.25,8.79-4.7,10.59a6.56,6.56,0,0,0-1.18-1.46,8.36,8.36,0,0,0,2.8-3.54,11.82,11.82,0,0,0-1.39-1.31,8.17,8.17,0,0,1-.93,1.34,9.59,9.59,0,0,0-1.06-1.28v6.23h-1.74v-8a13.16,13.16,0,0,1-1,1.31,14.36,14.36,0,0,0-.91-2,17.79,17.79,0,0,0,3.16-6.16l1.76.53,0,.16h5.54v1.14h1.57v9.31Zm-6.67-2.56a13.79,13.79,0,0,0,2.18-6.23H2386V702.9a29.71,29.71,0,0,1-1.12,2.77Zm3.2-2.85c-.16.48-.32,1-.49,1.39a14.22,14.22,0,0,1,1.32,1.06,19.73,19.73,0,0,0,.55-2.45Zm7.92-5.44v12.48c0,1-.18,1.51-.77,1.81a6.26,6.26,0,0,1-2.74.37,6.9,6.9,0,0,0-.57-1.87c.86,0,1.68,0,2,0s.35-.08.35-.35V702.2Z" transform="translate(-2380.93 -548.86)"/><path class="cls-1" d="M2386.59,750.56a19.09,19.09,0,0,0-1.17-1.56v6.24h-1.87v-5.89a11.92,11.92,0,0,1-1.82,1.41,9.61,9.61,0,0,0-.72-1.93,11.21,11.21,0,0,0,4.11-4.15h-3.65V743h2.8a10.61,10.61,0,0,0-1.3-2l1.51-.79a10.1,10.1,0,0,1,1.45,2l-1.26.74h1.49l.32-.08,1,.73a14.94,14.94,0,0,1-1.83,3.35c.65.58,1.8,1.7,2.12,2Zm9.58,2.3v1.89h-9.23v-1.89h3.85v-5.94h-3.15v-1.84h3.15v-4.69h2v4.69h3v1.84h-3v5.94Z" transform="translate(-2380.93 -548.86)"/><path class="cls-1" d="M2388.4,768.28v5.4h-3.82v.77h-1.72v-3.59c-.2.24-.39.46-.61.69a8.52,8.52,0,0,0-1.22-1.46,7,7,0,0,0,1.76-3H2382v-1.6h1.18c.06-.32.11-.66.16-1h-2.13v-1.58h2.29c0-.34,0-.68.06-1h-1.47v-1.6h6v2.63h.78v1.58h-.78v2.61h-3.49c-.11.43-.24.83-.38,1.23Zm-3.82,1.64V772h2v-2.12Zm.55-5.48c-.05.34-.1.67-.16,1h1.39v-1Zm.24-2.61c0,.35,0,.69-.08,1h1.07v-1Zm10.77,9.09h-2.89v3.51h-1.84v-3.51h-2.69v-1.77h2.69v-1.68h-2.13v-1.73h2.13v-1.48h-2.33v-1.69h1a10,10,0,0,0-.95-2.45l1.52-.53a9.21,9.21,0,0,1,1.09,2.61l-1,.37h3.5l-1.33-.35a17.09,17.09,0,0,0,1-2.74l1.84.42c-.4,1-.83,2-1.2,2.67h1.39v1.69h-2.57v1.48h2.29v1.73h-2.29v1.68h2.89Z" transform="translate(-2380.93 -548.86)"/><path class="cls-1" d="M2384.24,778.91l1.49,1.1a3.77,3.77,0,0,0-1.22,2.64c0,1.2.58,2,1.57,2s1.81-.69,1.81-3.27h1.7c0,2.18.72,2.88,1.71,2.88s1.43-.57,1.43-1.58a3.22,3.22,0,0,0-1.06-2.24l1.44-1.2a5.24,5.24,0,0,1,1.47,3.55c0,2.29-1.12,3.84-3.1,3.84a2.74,2.74,0,0,1-2.61-2h-.08a2.9,2.9,0,0,1-2.85,2.35c-2.11,0-3.35-1.9-3.35-4.15A5,5,0,0,1,2384.24,778.91Z" transform="translate(-2380.93 -548.86)"/><path class="cls-1" d="M2388.28,788.7c4.4,0,6.3,2.19,6.3,4.59a4.35,4.35,0,0,1-1.34,3.2l-1.41-1.25a2.65,2.65,0,0,0,.85-1.82c0-1.36-1-2.48-4-2.58a3.41,3.41,0,0,1,1.3,2.43c0,2-1.14,3.41-3.56,3.41a3.66,3.66,0,0,1-3.84-3.73C2382.59,790.71,2384.32,788.7,2388.28,788.7Zm-1.22,2.21c-1.95.22-2.69,1-2.69,2s.69,1.61,2.06,1.61,1.89-.67,1.89-1.69A2.33,2.33,0,0,0,2387.06,790.91Z" transform="translate(-2380.93 -548.86)"/><path class="cls-1" d="M2388.64,798c3.91,0,5.94,1.59,5.94,4s-2,4-5.94,4-6-1.57-6-4S2384.72,798,2388.64,798Zm0,5.79c3.21,0,4.1-.75,4.1-1.77s-.89-1.79-4.1-1.79-4.21.76-4.21,1.79S2385.43,803.83,2388.64,803.83Z" transform="translate(-2380.93 -548.86)"/><path class="cls-1" d="M2394.17,829.67v2.62l-5.55,2c-.74.26-1.52.48-2.27.72v.08c.75.26,1.53.47,2.27.72l5.55,2v2.62h-11.86v-2.15h5c1.12,0,2.77.17,3.89.3v-.08l-2.79-1-5-1.82v-1.36l5-1.84,2.79-1v-.06c-1.12.11-2.77.3-3.89.3h-5v-2.12Z" transform="translate(-2380.93 -548.86)"/><path class="cls-1" d="M2384.75,842.69c1.92,0,2.93,1.55,3.31,5.17.88-.05,1.55-.44,1.55-1.54a5.05,5.05,0,0,0-.85-2.46l1.56-.85a7.2,7.2,0,0,1,1.18,3.74c0,2.27-1.36,3.44-3.95,3.44h-5.24v-1.92l1-.16v-.06a4.23,4.23,0,0,1-1.18-2.71A2.55,2.55,0,0,1,2384.75,842.69Zm.06,5.17h1.81c-.27-2.19-.88-2.93-1.68-2.93s-1,.5-1,1.18A2.46,2.46,0,0,0,2384.81,847.86Z" transform="translate(-2380.93 -548.86)"/><path class="cls-1" d="M2391.28,852.59v1.92l-1.59.18v0a3.09,3.09,0,0,1,1.81,2.54,2.55,2.55,0,0,1-.19,1.05l-2-.4a3.14,3.14,0,0,0,.14-.94c0-.7-.46-1.55-1.76-2h-5.35v-2.35Z" transform="translate(-2380.93 -548.86)"/><path class="cls-1" d="M2385.45,859.9h4v-1.26h1.74l.12,1.39,2.41.27v2h-2.41v2.2h-1.86v-2.2h-4c-1,0-1.5.41-1.5,1.21a2.51,2.51,0,0,0,.19.88l-1.72.38a6.05,6.05,0,0,1-.33-1.88C2382.09,860.72,2383.45,859.9,2385.45,859.9Z" transform="translate(-2380.93 -548.86)"/><path class="cls-1" d="M2386.8,865.42a4.39,4.39,0,0,1,4.7,4.18c0,2.46-1.81,3.74-4.27,3.74a4.67,4.67,0,0,1-1.09-.11v-5.52a2.35,2.35,0,0,0-2.24,2.48,3.66,3.66,0,0,0,.62,2l-1.44.8a5.6,5.6,0,0,1-1-3.11A4.36,4.36,0,0,1,2386.8,865.42Zm.91,5.91c1.2,0,2-.55,2-1.7a2,2,0,0,0-2-2Z" transform="translate(-2380.93 -548.86)"/><path class="cls-1" d="M2386.8,874.72a4.47,4.47,0,0,1,4.7,4.57,3.92,3.92,0,0,1-1,2.61l-1.52-1.12a2.05,2.05,0,0,0,.59-1.36c0-1.37-1.1-2.3-2.78-2.3s-2.79.94-2.79,2.22a2.74,2.74,0,0,0,.72,1.74l-1.55.95a4.48,4.48,0,0,1-1.09-2.94C2382.09,876.61,2383.82,874.72,2386.8,874.72Z" transform="translate(-2380.93 -548.86)"/><path class="cls-1" d="M2395.09,883.71v2.35h-3.22l-1.68-.11a4.08,4.08,0,0,1,1.31,2.81c0,1.94-1.34,2.77-3.6,2.77h-5.59v-2.35h5.3c1.39,0,1.87-.38,1.87-1.26a2.53,2.53,0,0,0-1-1.86h-6.17v-2.35Z" transform="translate(-2380.93 -548.86)"/><path class="cls-1" d="M2386.16,917.43v12.65h-1.59v-2.75c-1.13.2-2.25.41-3.21.56l-.35-1.65.83-.11v-8.7h-.59v-1.69h5.4v1.69Zm-1.59,0h-1.21v1.68h1.21Zm0,3.24h-1.21v1.69h1.21Zm0,5v-1.79h-1.21v2Zm5.94-5.59a22.37,22.37,0,0,1,.76,2.64l-1.13.36c0-.21-.1-.47-.15-.74-2.6.32-3,.42-3.27.58-.07-.36-.26-1.19-.4-1.65a2.16,2.16,0,0,0,.92-.74,8.45,8.45,0,0,0,.68-.82,2.79,2.79,0,0,0-1.12.24,11.77,11.77,0,0,0-.44-1.69,1.47,1.47,0,0,0,.68-.56,11.25,11.25,0,0,0,1.39-2.55l1.34.59a16.79,16.79,0,0,1-1.73,2.77l.74,0c.3-.45.59-.92.85-1.41l1.23.65a24.28,24.28,0,0,1-2.66,3.61l1.47-.15c-.08-.29-.17-.58-.25-.83Zm-1.28,3h1.56v2.39a4.66,4.66,0,0,1-3,4.64,5.8,5.8,0,0,0-1-1.3A3.77,3.77,0,0,0,2389,927h-2v-3.89h1.52v2.31h.77Zm5.82-.09c-.07-.23-.13-.5-.23-.8-2.57.43-3,.56-3.26.73a15.17,15.17,0,0,0-.38-1.6c.27,0,.54-.32.86-.77a9.38,9.38,0,0,0,.72-1,3.58,3.58,0,0,0-1.41.29,15.33,15.33,0,0,0-.41-1.57,1.11,1.11,0,0,0,.64-.51,11.69,11.69,0,0,0,1.42-2.5l1.18.64a15.11,15.11,0,0,1-1.55,2.47l.85,0c.24-.43.46-.88.66-1.32l1.21.64a23.78,23.78,0,0,1-2.24,3.58l1.35-.18c-.1-.28-.21-.57-.31-.83l1.06-.35a26.9,26.9,0,0,1,1,2.66Zm-1.17.19h1.54v4.34h-1.54V927h-.8v3.06h-1.63v-7h1.63v2.26h.8Z" transform="translate(-2380.93 -548.86)"/><path class="cls-1" d="M2385.52,944.38c0-.22-.08-.51-.15-.83a19.94,19.94,0,0,0-3.75.78c-.1-.33-.41-1.2-.6-1.68.4-.08.76-.45,1.27-1a15.84,15.84,0,0,0,1-1.29,6.11,6.11,0,0,0-1.79.33c-.1-.35-.37-1.15-.56-1.62.3-.08.57-.36.91-.86a18.16,18.16,0,0,0,1.95-3.87l1.66.7a22.45,22.45,0,0,1-2.27,3.87l1.11-.08a22.92,22.92,0,0,0,1.13-2.14l1.57,1a30.05,30.05,0,0,1-2.13,3.28l1.17-.32a21.84,21.84,0,0,1,.91,3.35Zm-2.32.72a17.63,17.63,0,0,1-.72,3.92,8,8,0,0,0-1.49-.53,13.84,13.84,0,0,0,.66-3.64Zm1.69-.3a29.23,29.23,0,0,1,.45,3.45l-1.44.29a31.51,31.51,0,0,0-.37-3.49Zm.16-2.63c-.09-.38-.2-.77-.32-1.12a16.72,16.72,0,0,1-1.05,1.31Zm1.44,2.19a23.81,23.81,0,0,1,.88,3l-1.34.48a23.21,23.21,0,0,0-.82-3.07Zm9-7.9a12.44,12.44,0,0,1-2.56,4.14,11.34,11.34,0,0,0,3.36,1.78A7.4,7.4,0,0,0,2395,944h0v5.26h-1.86v-.49h-3.28v.49h-1.76V944l-.32.14a6.92,6.92,0,0,0-1.1-1.49,12.57,12.57,0,0,0,3.63-2.11,16.39,16.39,0,0,1-1.2-1.57,10.52,10.52,0,0,1-1.15,1.16,11.37,11.37,0,0,0-1.41-1.35,10.2,10.2,0,0,0,3.36-4.51l1.81.51c-.16.37-.32.74-.51,1.1h2.65l.3-.08Zm-1.73,6.9a12.23,12.23,0,0,1-2.13-1.52,14.1,14.1,0,0,1-2.17,1.52Zm-.56,3.74V945h-3.28v2.08Zm-3-9.46a10.13,10.13,0,0,0,1.37,1.76,10.73,10.73,0,0,0,1.39-1.9h-2.65Z" transform="translate(-2380.93 -548.86)"/><path class="cls-1" d="M2395.19,961.12a15.9,15.9,0,0,1-2.65,3.5c.43,1.23.92,2,1.4,2s.53-.77.61-2.66a4.94,4.94,0,0,0,1.57,1.09c-.3,2.8-.9,3.51-2.35,3.51-1.17,0-2.06-1-2.75-2.53a16.8,16.8,0,0,1-3,2,8.62,8.62,0,0,0-1.26-1.54,16.25,16.25,0,0,0,3.56-2.25,29.82,29.82,0,0,1-.81-4.29h-3.25v1.82l2.46-.45.15,1.73-2.61.53v2.74c0,1-.22,1.55-.86,1.85a6.74,6.74,0,0,1-2.88.37,7.71,7.71,0,0,0-.67-1.92c.89.05,1.82,0,2.11,0s.38-.08.38-.34V963.9c-1,.21-2,.42-2.86.58l-.46-1.92c.91-.15,2.06-.32,3.32-.55v-2.14h-3v-1.81h3v-1.83c-.86.15-1.74.26-2.56.36a7,7,0,0,0-.54-1.6,41,41,0,0,0,6.35-1.35l1.28,1.62c-.8.24-1.68.45-2.61.64v2.16h3.07c-.13-1.44-.17-2.93-.19-4.39h2a39.53,39.53,0,0,0,.16,4.39h4.35v1.81h-4.16c.13,1,.29,1.89.46,2.7a13.07,13.07,0,0,0,1.52-2.17Zm-1.17-3.53a12.52,12.52,0,0,0-2.27-2.64l1.44-1a13.48,13.48,0,0,1,2.37,2.54Z" transform="translate(-2380.93 -548.86)"/><path class="cls-1" d="M2390.51,979.68h-2.75v8H2386v-14c-.32.91-.68,1.86-1.1,2.77v11.28h-1.81v-8a11.79,11.79,0,0,1-1,1.31,12.42,12.42,0,0,0-.91-2.05,17.9,17.9,0,0,0,3.17-6.18l1.76.53-.1.31h4.49Zm-2.75-4.66v.91h1.32V975Zm1.32,3.22v-1h-1.32v1Zm6.9,7.21c0,1.06-.22,1.57-.86,1.84a8.18,8.18,0,0,1-3.17.36,7.48,7.48,0,0,0-.6-1.84c1,.06,2.07,0,2.4,0s.41-.1.41-.4v-5.76h-2.93v-6.1H2396ZM2392.74,975v.91h1.42V975Zm1.42,3.22v-1h-1.42v1Z" transform="translate(-2380.93 -548.86)"/></svg>