<svg xmlns="http://www.w3.org/2000/svg" viewBox="0 0 600 197.76"><defs><style>.cls-1{fill:none;stroke:#231916;stroke-width:0.15px;}.cls-2{fill:#fff;}.cls-3{fill:#231916;}.cls-4{fill:#9e9e9f;}.cls-5{fill:#009844;}.cls-6{fill:#e95506;}</style></defs><title>Artboard 4</title><g id="圖層_3" data-name="圖層 3"><line class="cls-1" x1="2.9" y1="137.02" x2="556.94" y2="137.02"/><line class="cls-1" x1="2.56" y1="137.02" x2="556.89" y2="137.02"/><path class="cls-2" d="M516.23,160.87a68.45,68.45,0,0,1,6.34-7.58,67.66,67.66,0,0,1,7.39-6.63l-2.77,11.06"/><path class="cls-3" d="M535.39,165.65a69.25,69.25,0,0,1-9.74-1.7,67.83,67.83,0,0,1-9.42-3.08l11-3.15"/><path class="cls-4" d="M530,146.66a71.11,71.11,0,0,1,3.39,9.28,70,70,0,0,1,2,9.71l-8.21-7.93"/><path class="cls-4" d="M512.35,183.61a70.81,70.81,0,0,1-9.28-17.43l9.69,6"/><path class="cls-3" d="M522.82,166.86a68.57,68.57,0,0,1-10.47,16.75l.41-11.39"/><path class="cls-2" d="M503.09,166.17a70.15,70.15,0,0,1,9.87-.36,68.06,68.06,0,0,1,9.86,1.05l-10.06,5.35"/><path class="cls-3" d="M532.8,194.33a67.38,67.38,0,0,1-9.6,2.4,68.18,68.18,0,0,1-9.86,1l8.74-7.33"/><path class="cls-4" d="M520.08,179.2a67.11,67.11,0,0,1,6.9,7.09,71.86,71.86,0,0,1,5.82,8l-10.72-3.9"/><path class="cls-2" d="M513.34,197.75a67.55,67.55,0,0,1,2.71-9.5,69.07,69.07,0,0,1,4-9.05l2,11.23"/><path class="cls-4" d="M549.29,178.2a69,69,0,0,1-2.75,19.56l-4.27-10.57"/><path class="cls-2" d="M531,185.6a69.47,69.47,0,0,1,8.87-4.35,68.2,68.2,0,0,1,9.44-3.05l-7,9"/><path class="cls-3" d="M546.54,197.76a68.82,68.82,0,0,1-8.2-5.52A69.91,69.91,0,0,1,531,185.6l11.3,1.59"/><path class="cls-4" d="M539.05,157.53a68.15,68.15,0,0,1,9.18,3.68,70.83,70.83,0,0,1,8.58,5l-11.38.81"/><path class="cls-2" d="M540.44,177.22a66.58,66.58,0,0,1-1.4-9.78,68.27,68.27,0,0,1,0-9.91l6.38,9.44"/><path class="cls-3" d="M556.81,166.18a69.22,69.22,0,0,1-16.38,11l5-10.26"/><polygon class="cls-2" points="563.6 169.69 564.09 169.69 564.09 165.38 565.97 165.38 565.97 164.93 561.73 164.93 561.73 165.38 563.6 165.38 563.6 169.69"/><polygon class="cls-2" points="572.17 164.93 572.86 164.93 572.86 169.7 572.38 169.7 572.38 165.57 572.37 165.57 570.25 169.7 569.8 169.7 567.7 165.57 567.69 165.57 567.69 169.7 567.2 169.7 567.2 164.93 567.92 164.93 570.04 169.07 572.17 164.93"/><polygon class="cls-2" points="351.18 164.36 354.27 164.36 354.27 185.43 352.1 185.43 352.1 167.24 352.03 167.24 342.76 185.43 340.74 185.43 331.49 167.21 331.44 167.21 331.44 185.43 329.26 185.43 329.26 164.36 332.43 164.36 341.82 182.69 351.18 164.36"/><path class="cls-2" d="M37,178.52a6.43,6.43,0,0,0,1.83,4.84c1.61,1.63,4.49,2.45,8.1,2.45,2,0,8.95-.45,8.95-6.2,0-5.05-4.61-5.52-8.69-5.93h0c-4.2-.43-7.29-.88-7.29-3.74a3.28,3.28,0,0,1,2.22-3.13A11.58,11.58,0,0,1,47,166c1.33,0,3.77.19,5.15,1.57a3.88,3.88,0,0,1,1,2.66l2.11,0a5.85,5.85,0,0,0-1.47-4.06C52,164.41,49,164,46.83,164c-3,0-6,.64-7.78,2.46a4.71,4.71,0,0,0-1.45,3.43c0,4.95,5,5.36,9,5.71a16.82,16.82,0,0,1,5,.91,3.12,3.12,0,0,1,2,3.17,3.36,3.36,0,0,1-1,2.45c-1.54,1.53-4.72,1.68-5.88,1.68-2.85,0-5.15-.61-6.37-1.82A4.61,4.61,0,0,1,39,178.52Zm22.25-14.1v2.06h8.13v18.94h2.16V166.48h8.13v-2.06Zm28.67,0-9.65,21h2.37s2.74-6,3-6.49H94.13l3,6.49H99.5l-9.65-21Zm1,2.92c.67,1.44,3.91,8.52,4.39,9.58H84.48c.49-1.06,3.71-8.14,4.36-9.58m16.72-2.92v21h2.19V176.3h8.49c3.75,0,4.63.74,4.73,4s.23,4.52.68,5l.14.14H124l-.35-.68c-.34-.66-.47-2-.5-5.34a4.4,4.4,0,0,0-3-4.26,5.44,5.44,0,0,0,3.32-4.93c0-3.9-2.38-5.79-7.25-5.79Zm10.82,2.06c3.32,0,4.93,1.19,4.93,3.66,0,2.76-1.71,4.1-5.23,4.1h-8.33v-7.76Zm32.05-2.06-9.64,21h2.4l3-6.49h10.56c.24.51,3,6.49,3,6.49h2.4l-9.62-21Zm1,2.92c.65,1.44,3.88,8.52,4.36,9.58h-8.75c.47-1.06,3.72-8.14,4.39-9.58m75.36-2.92-9.66,21h2.41s2.73-6,3-6.49h10.57c.23.51,3,6.49,3,6.49h2.38l-9.6-21Zm1,2.92c.67,1.44,3.89,8.52,4.37,9.58h-8.76l4.39-9.58m-59-2.92v21H182v-2.06H169V164.42Zm19.79,0v21h15.09v-2.06h-12.9V164.42Zm19.62,21h2.17v-21h-2.17Zm53.48-21V182c-1.33-1.64-15.17-17.53-15.17-17.53h-2.2v21h2.16V167.9c1.35,1.64,15.19,17.52,15.19,17.52h2.19v-21Zm37.79,0v21h16.94v-2.06H299.72v-7.79h14v-2h-14v-7.07h14.59v-2.06ZM268.73,175c0,6.64,4.6,10.91,11.37,10.91,6.3,0,10.13-4.26,10.63-8.47l0-.5h-2.27l-.07.36c-.72,4.05-3.9,6.55-8.34,6.55-6.52,0-9.12-4.57-9.12-8.86,0-5.24,3.77-8.9,9.2-8.9,4.13,0,7.11,2,7.94,5.28l.1.34h2.27l-.12-.56c-1.05-4.53-4.75-7.12-10.19-7.12-7.71,0-11.45,5.69-11.45,11"/><path class="cls-2" d="M14.29,164.43h-2l-9.65,21H5s2.75-6,3-6.49H18.57l2.95,6.49h2.42ZM8.91,176.92c.49-1.06,3.71-8.13,4.37-9.58.66,1.45,3.91,8.52,4.39,9.58Z"/><polygon class="cls-2" points="377.82 164.47 377.82 166.53 363.22 166.53 363.22 173.59 377.24 173.59 377.24 175.62 363.22 175.62 363.22 183.41 378 183.41 378 185.46 361.05 185.46 361.05 164.47 377.82 164.47"/><polygon class="cls-2" points="406.46 164.5 406.53 164.38 409.61 164.38 409.61 185.44 407.44 185.44 407.44 167.25 407.38 167.25 398.11 185.44 396.08 185.44 386.83 167.21 386.77 167.21 386.77 185.44 384.61 185.44 384.61 164.38 387.77 164.38 397.16 182.69 406.46 164.5"/><path class="cls-2" d="M418.61,166.4H428c2.38,0,4.07.84,4.07,3.4,0,2.81-1.88,3.76-4.81,3.76h-8.62Zm-2.15,19H428.1c3.23,0,6.91-1.6,6.91-6a4.93,4.93,0,0,0-4.42-5.13v-.06a4.44,4.44,0,0,0,3.6-4.53c0-3-1.69-5.3-5.81-5.3H416.46Zm2.15-9.89h9.67c2.52,0,4.41.86,4.41,3.9s-2.12,4-4.94,4h-9.14Z"/><polygon class="cls-2" points="458.65 164.45 458.65 166.5 444.06 166.5 444.06 173.58 458.07 173.58 458.07 175.59 444.06 175.59 444.06 183.39 458.82 183.39 458.82 185.43 441.88 185.43 441.88 164.45 458.65 164.45"/><path class="cls-2" d="M483.52,184.76c-.33-.66-.45-2-.49-5.34a4.43,4.43,0,0,0-3-4.27,5.41,5.41,0,0,0,3.31-4.93c0-3.88-2.37-5.77-7.25-5.77H465.4v21h2.19v-9.12h8.5c3.74,0,4.62.75,4.72,4s.23,4.52.68,5l.14.13h2.25Zm-7.59-10.5h-8.34V166.5h8.63c3.32,0,4.93,1.2,4.93,3.65,0,2.77-1.72,4.11-5.22,4.11"/><polygon class="cls-2" points="127.4 52.96 116.08 80.06 104.86 53.06 71.06 53.06 71.08 53.1 0 53.1 0 113.57 73.55 113.57 73.55 58.44 99.08 113.56 132.98 113.56 160.94 52.96 127.4 52.96"/><polygon class="cls-2" points="327.43 110.97 297.82 52.96 264.12 52.96 233.99 111.7 204.01 52.96 170.3 52.96 139.16 113.65 172.64 113.65 176.4 106.06 197.89 106.06 201.59 113.56 266.47 113.65 270.23 106.06 291.71 106.06 295.41 113.56 327.43 113.56 328.75 113.56 359.49 113.56 359.49 53.06 327.43 53.06 327.43 110.97"/><path class="cls-2" d="M438,86.22a12.42,12.42,0,0,0,2.56-7.54V69.5c0-11.89-10.27-15.93-15.7-16.41l-60.75,0v60.5H396.2V95.24h12.35v18.32h32.06V95A14.14,14.14,0,0,0,438,86.22Z"/><polygon class="cls-5" points="69.85 70.96 69.85 56.8 3.69 56.8 3.69 109.88 69.85 109.88 69.85 95.71 27.82 95.71 27.82 89.86 69.85 89.86 69.85 76.79 27.82 76.79 27.82 70.96 69.85 70.96"/><polygon class="cls-5" points="76.84 56.75 102.39 56.75 116.07 89.66 129.86 56.66 155.17 56.66 130.62 109.87 101.44 109.87 76.84 56.75"/><path class="cls-5" d="M203.89,109.87h25L201.74,56.66H172.56L145.21,110h25.14l3.76-7.6h26.08ZM180.75,89,187.18,76,193.57,89Z"/><path class="cls-5" d="M297.71,109.87h25L295.56,56.66H266.38L239,110h25.15l3.76-7.6H294ZM274.58,89,281,76,287.4,89Z"/><rect class="cls-5" x="331.12" y="56.75" width="24.67" height="53.11"/><path class="cls-5" d="M430.73,85.77c6.3,0,6.17-7.09,6.17-7.09V69.5c0-11.65-12.34-12.73-12.34-12.73l-56.73,0v53.12h24.68V91.54h16.38a3.16,3.16,0,0,1,2.47,1,3.93,3.93,0,0,1,.88,2.45v14.91h24.68V95C436.91,86.41,430.73,85.77,430.73,85.77Zm-21.27-7.92H392.23V70.17h17.23a3.84,3.84,0,1,1,0,7.68Z"/><path class="cls-2" d="M600,0H536.17l-89,113.68h113.2Z"/><path class="cls-2" d="M489.23,67.55A36,36,0,1,0,525.8,20.82Z"/><path class="cls-5" d="M538,3.78,454.84,110.05H557.53l37-106.27ZM523.55,94.2a37.21,37.21,0,0,1-35-24.32h0L527.8,19.72h0a37.36,37.36,0,0,1-4.26,74.48"/><path class="cls-6" d="M527.81,19.72,527,20.78l-.67.85-.17.22-.57.74a38.06,38.06,0,0,1,10.75,8,21.51,21.51,0,0,1-4.79,2.74,58.77,58.77,0,0,0-6-10.66l-.77,1a58.22,58.22,0,0,1,5.66,10.08,21.49,21.49,0,0,1-6.26,1.11V24.41L523,25.94v8.88a20.66,20.66,0,0,1-6.1-1.1S514,37.36,514,37.36a60.7,60.7,0,0,0-2.14,7.82c-1.13-.21-2.26-.48-3.39-.75l-.81,1c1.32.34,2.65.63,4,.89a60,60,0,0,0-.92,9.87H500.31l.05-1.43-2.07,2.64h.82a40.39,40.39,0,0,0,2.29,12.71A63.63,63.63,0,0,0,493,74a34.3,34.3,0,0,1-2.73-6.22l-.83,1-.83,1.06a37.36,37.36,0,1,0,39.25-50.16m30.83,36.51H548a39.34,39.34,0,0,0-2.33-12.7,65.64,65.64,0,0,0,8.51-3.85,34.85,34.85,0,0,1,4.47,16.55m-46.72,1.21h11v8.75a64.68,64.68,0,0,0-10.14.92,58.44,58.44,0,0,1-.89-9.67m12.22-10a63.61,63.61,0,0,0,10.14-.92,58.87,58.87,0,0,1,.9,9.68h-11Zm11,10a59.41,59.41,0,0,1-.88,9.66,65,65,0,0,0-10.16-.91V57.44ZM513,68.29a61.91,61.91,0,0,1,9.92-.9V77.66a21.61,21.61,0,0,0-6.72,1.23,56.57,56.57,0,0,1-3.2-10.6m2.08,11a22.08,22.08,0,0,0-5.16,3,38.15,38.15,0,0,1-7-11.41,64.13,64.13,0,0,1,8.92-2.39,57.73,57.73,0,0,0,3.27,10.82m9-11.92a64.89,64.89,0,0,1,9.94.9,57.9,57.9,0,0,1-3.2,10.58,22.36,22.36,0,0,0-6.74-1.2Zm11.12,1.09a63.49,63.49,0,0,1,8.93,2.38,37.65,37.65,0,0,1-7,11.42,21.66,21.66,0,0,0-5.17-3,57.19,57.19,0,0,0,3.26-10.82m.23-1.18a60.63,60.63,0,0,0,.89-9.85H546.8a38.25,38.25,0,0,1-2.21,12.27,66.68,66.68,0,0,0-9.1-2.42m.89-11.06a59.88,59.88,0,0,0-.91-9.87,63.51,63.51,0,0,0,9.07-2.42,37.94,37.94,0,0,1,2.26,12.29Zm17.18-17.58a61,61,0,0,1-8.33,3.76,39.52,39.52,0,0,0-7.17-11.69,23,23,0,0,0,3.63-3.93,35.25,35.25,0,0,1,11.87,11.86M526.85,21.9a35.06,35.06,0,0,1,13.8,4.29,20.6,20.6,0,0,1-3.4,3.63,39.85,39.85,0,0,0-10.4-7.92m10.28,9.58a38.5,38.5,0,0,1,7,11.35,64.21,64.21,0,0,1-8.86,2.35A58.39,58.39,0,0,0,532,34.41a22.12,22.12,0,0,0,5.13-2.93m-6.25,3.35a57.7,57.7,0,0,1,3.19,10.54,63.42,63.42,0,0,1-9.93.9V36a22.36,22.36,0,0,0,6.74-1.2m-14.62,0A21.93,21.93,0,0,0,523,36V46.27a62.94,62.94,0,0,1-9.9-.9,57.32,57.32,0,0,1,3.21-10.58m-3.44,11.76a64.66,64.66,0,0,0,10.13.92v8.76h-11a57.79,57.79,0,0,1,.89-9.68m-12.5,10.89h10.4a59.34,59.34,0,0,0,.91,9.85,66.15,66.15,0,0,0-9.11,2.45,38.65,38.65,0,0,1-2.2-12.3m1.48,13.84A39.09,39.09,0,0,0,509,83a21.64,21.64,0,0,0-3.56,3.89A34.86,34.86,0,0,1,493.52,75a62.16,62.16,0,0,1,8.28-3.75m4.7,16.24a21.77,21.77,0,0,1,3.31-3.59,39.68,39.68,0,0,0,10.39,7.82,35.09,35.09,0,0,1-13.7-4.23m4.25-4.35a22,22,0,0,1,4.82-2.77,58.94,58.94,0,0,0,6.13,10.79,38.25,38.25,0,0,1-11-8m12.2,7.7A57.4,57.4,0,0,1,516.69,80,21.12,21.12,0,0,1,523,78.85Zm1.19-12A21.18,21.18,0,0,1,530.41,80a57,57,0,0,1-6.27,10.93Zm7.41,1.55a21,21,0,0,1,4.82,2.76,38.28,38.28,0,0,1-11,8,59,59,0,0,0,6.14-10.79m-4.66,11.37a39.77,39.77,0,0,0,10.42-7.85,20.75,20.75,0,0,1,3.3,3.57,35.16,35.16,0,0,1-13.72,4.28m14.77-4.88A22.27,22.27,0,0,0,538.1,83a38.85,38.85,0,0,0,7.22-11.75A60.07,60.07,0,0,1,553.58,75a35.37,35.37,0,0,1-11.92,11.88M554.17,74a62.89,62.89,0,0,0-8.45-3.83A40.09,40.09,0,0,0,548,57.44h10.65A34.71,34.71,0,0,1,554.17,74"/><polygon class="cls-2" points="527.22 65.21 536.04 69.26 531.86 60.32 543.26 57.52 543.26 56.17 531.86 53.33 536.21 44.2 527.15 48.44 524.33 32.23 522.74 32.23 519.97 48.41 510.95 44.2 515.19 53.35 503.84 56.17 503.84 57.5 515.19 60.24 511.08 69.29 519.94 65.27 522.72 81.45 524.27 81.44 527.22 65.21"/><polygon class="cls-5" points="523.58 33.12 526.53 49.68 534.46 45.93 530.72 53.85 542.61 56.82 530.72 59.78 534.32 67.55 526.53 64 523.52 80.4 520.6 64 512.8 67.56 516.39 59.78 504.53 56.82 516.39 53.85 512.68 45.93 520.6 49.65 523.58 33.12"/></g></svg>