<svg id="圖層_1" data-name="圖層 1" xmlns="http://www.w3.org/2000/svg" xmlns:xlink="http://www.w3.org/1999/xlink" viewBox="0 0 558.4 91.44"><defs><style>.cls-1{fill:#fff;}.cls-2{fill:#00afd5;}.cls-3{fill:url(#未命名漸層_7);}.cls-4{fill:#f0e900;}</style><linearGradient id="未命名漸層_7" x1="2223.86" y1="727.28" x2="2234.29" y2="684.37" gradientTransform="translate(0.21)" gradientUnits="userSpaceOnUse"><stop offset="0" stop-color="#00afd5"/><stop offset="1" stop-color="#f0e900"/></linearGradient></defs><path class="cls-1" d="M2515.45,712.89a.47.47,0,0,1,.48-.48h2.42a.85.85,0,0,1,.69.43l3.95,8.21c.12.24.3.24.42,0l4-8.21a.85.85,0,0,1,.69-.43h2.42a.48.48,0,0,1,.48.48V728.8a.49.49,0,0,1-.48.48H2528a.48.48,0,0,1-.48-.48v-9.13c0-.27-.1-.29-.21,0l-2.7,5.54a.85.85,0,0,1-.69.43h-1.36a.85.85,0,0,1-.69-.43l-2.7-5.54c-.11-.24-.21-.22-.21,0v9.13a.48.48,0,0,1-.48.48h-2.51a.48.48,0,0,1-.48-.48Z" transform="translate(-2109.9 -655.78)"/><path class="cls-1" d="M2546.08,726.11a.7.7,0,0,0-.63.46l-.7,2.25a.7.7,0,0,1-.62.46h-3a.31.31,0,0,1-.31-.45l5.77-16a.72.72,0,0,1,.64-.45h2.56a.73.73,0,0,1,.64.45l5.8,16a.32.32,0,0,1-.32.45h-3a.7.7,0,0,1-.62-.46l-.69-2.25a.68.68,0,0,0-.62-.46Zm2.64-9c-.08-.25-.21-.25-.29,0l-1.81,5.65a.33.33,0,0,0,.33.46h3.2a.34.34,0,0,0,.34-.46Z" transform="translate(-2109.9 -655.78)"/><path class="cls-1" d="M2591.5,715.84a.48.48,0,0,0-.48-.48h-3.53a.48.48,0,0,1-.48-.48v-2a.48.48,0,0,1,.48-.48h11.64a.48.48,0,0,1,.48.48v2a.48.48,0,0,1-.48.48h-3.51a.49.49,0,0,0-.48.48v13a.48.48,0,0,1-.48.48H2592a.49.49,0,0,1-.48-.48Z" transform="translate(-2109.9 -655.78)"/><path class="cls-1" d="M2609.74,712.89a.48.48,0,0,1,.48-.48h9.7a.48.48,0,0,1,.48.48v2a.48.48,0,0,1-.48.48h-6.11a.49.49,0,0,0-.48.48v3a.48.48,0,0,0,.48.48h5.32a.48.48,0,0,1,.48.48v2a.48.48,0,0,1-.48.48h-5.32a.48.48,0,0,0-.48.48v3.12a.48.48,0,0,0,.48.48h6.2a.48.48,0,0,1,.48.48v2a.48.48,0,0,1-.48.48h-9.79a.49.49,0,0,1-.48-.48Z" transform="translate(-2109.9 -655.78)"/><path class="cls-1" d="M2642.82,725.36a4.1,4.1,0,0,1-1.16,2.59c-1,1.07-2.62,1.59-4.89,1.59-2.43,0-4-.62-5-2-.8-1.09-1.11-2.39-1.11-4.8V719c0-2.6.35-4,1.35-5.08s2.52-1.75,4.79-1.75c3.53,0,5.37,1.35,5.77,4.24,0,.25.11.78-.58.83s-1.91.14-2.17.14a.62.62,0,0,1-.6-.47,2.12,2.12,0,0,0-2.37-1.81c-1.94,0-2.55,1-2.55,4.19v3.12c0,3.19.61,4.18,2.57,4.18a2.26,2.26,0,0,0,2.53-1.76.67.67,0,0,1,.81-.47c.57.06,1.59.17,2.06.24A.7.7,0,0,1,2642.82,725.36Z" transform="translate(-2109.9 -655.78)"/><path class="cls-1" d="M2653.29,712.89a.47.47,0,0,1,.48-.48h2.68a.48.48,0,0,1,.48.48v5.91a.47.47,0,0,0,.48.48h4a.48.48,0,0,0,.48-.48v-5.91a.47.47,0,0,1,.48-.48h2.68a.48.48,0,0,1,.48.48V728.8a.49.49,0,0,1-.48.48h-2.68a.48.48,0,0,1-.48-.48v-6.08a.48.48,0,0,0-.48-.48h-4a.47.47,0,0,0-.48.48v6.08a.49.49,0,0,1-.48.48h-2.68a.48.48,0,0,1-.48-.48Z" transform="translate(-2109.9 -655.78)"/><path class="cls-1" d="M2577.73,726.19l-.54,0c-1.06,0-1.37-1.07-1.44-1.25l-1.09-2.73c1.91-.66,2.69-2.06,2.69-4.8a4.87,4.87,0,0,0-1.23-3.73c-.89-.9-2.1-1.23-4.37-1.23h-5.55a.85.85,0,0,0-.85.89v15.08a.83.83,0,0,0,.74.9h2a.8.8,0,0,0,.85-.81V723h0v-.07a.34.34,0,0,1,.24-.35h1.63a.52.52,0,0,1,.43.39h0l1.2,3a4.9,4.9,0,0,0,4.68,3.28h.42a.73.73,0,0,0,.65-.72v-1.79A.59.59,0,0,0,2577.73,726.19Zm-6.29-6.41h-2c-.37,0-.46-.21-.48-.37v-3.79a.43.43,0,0,1,.41-.33h2.07c1.72,0,2.36.61,2.36,2.24S2573.12,719.78,2571.44,719.78Z" transform="translate(-2109.9 -655.78)"/><path class="cls-1" d="M2540.31,691.85c-.93-.54-1.65-1-2.52-1.59a.4.4,0,0,0-.63.33v10.14a.4.4,0,0,1-.4.39h-3a.4.4,0,0,1-.4-.39v-.48a.4.4,0,0,0-.4-.4h-10.65a.4.4,0,0,0-.4.4v.48a.4.4,0,0,1-.4.39h-3a.4.4,0,0,1-.4-.39v-9.8a.39.39,0,0,0-.63-.32c-.85.61-1.74,1.18-2.66,1.72a.4.4,0,0,1-.54-.15l-1.6-2.71a.39.39,0,0,1,.18-.56,28.22,28.22,0,0,0,6-3.47.39.39,0,0,0-.25-.7h-4.83a.39.39,0,0,1-.39-.4v-2.25a.39.39,0,0,1,.39-.4H2521a.39.39,0,0,0,.3-.14,7.57,7.57,0,0,0,.56-.74.4.4,0,0,0-.33-.62h-5.48a.4.4,0,0,1-.4-.4v-1.95a.4.4,0,0,1,.4-.4h7.11a.4.4,0,0,0,.36-.22,4.92,4.92,0,0,0,.26-.58.4.4,0,0,0-.37-.54h-8.63a.4.4,0,0,1-.4-.4v-2.18a.4.4,0,0,1,.4-.4h9.7a.39.39,0,0,0,.38-.28,13.68,13.68,0,0,0,.34-1.48.41.41,0,0,1,.43-.33l3.19.32a.4.4,0,0,1,.35.48c-.06.27-.12.51-.2.78a.39.39,0,0,0,.38.51h11a.4.4,0,0,1,.4.4v2.18a.4.4,0,0,1-.4.4h-12a.4.4,0,0,0-.37.26c-.08.21-.13.38-.19.55a.39.39,0,0,0,.37.53h11a.4.4,0,0,1,.4.4v1.95a.4.4,0,0,1-.4.4h-12.34a.42.42,0,0,0-.36.22c-.12.26-.24.47-.36.68a.39.39,0,0,0,.34.6h15.24a.4.4,0,0,1,.4.4v2.25a.4.4,0,0,1-.4.4h-4.85a.4.4,0,0,0-.23.72,30.6,30.6,0,0,0,5.79,3.21.39.39,0,0,1,.17.58l-1.68,2.47A.4.4,0,0,1,2540.31,691.85Zm-16.55-7a22.12,22.12,0,0,1-1.51,1.72.4.4,0,0,0,.29.68h10.67a.4.4,0,0,0,.26-.7,10.51,10.51,0,0,1-1.55-1.69.42.42,0,0,0-.32-.16h-7.53A.39.39,0,0,0,2523.76,684.89Zm9.21,5.57h-10.65a.4.4,0,0,0-.4.4v1a.4.4,0,0,0,.4.4H2533a.4.4,0,0,0,.4-.4v-1A.4.4,0,0,0,2533,690.46Zm0,4.64h-10.65a.4.4,0,0,0-.4.4v.94a.4.4,0,0,0,.4.4H2533a.4.4,0,0,0,.4-.4v-.94A.4.4,0,0,0,2533,695.1Z" transform="translate(-2109.9 -655.78)"/><path class="cls-1" d="M2607.61,690.18c-.5-.63-1.06-1.26-1.78-2a.27.27,0,0,0-.47.18v12.59a.27.27,0,0,1-.27.27h-3a.27.27,0,0,1-.27-.27V689.31a.27.27,0,0,0-.51-.13,26.39,26.39,0,0,1-2.66,4,.26.26,0,0,1-.41,0l-2-2.35a.26.26,0,0,1,0-.36,22.62,22.62,0,0,0,5.11-7.2.28.28,0,0,0-.26-.38h-4.33a.27.27,0,0,1-.27-.27v-2.73a.27.27,0,0,1,.27-.27h4.79a.27.27,0,0,0,.27-.27v-2.8a.28.28,0,0,0-.33-.27c-1.26.24-2.41.39-3.63.59a.27.27,0,0,1-.3-.19l-.91-3a.27.27,0,0,1,.23-.35,67.38,67.38,0,0,0,11-2,.28.28,0,0,1,.31.14l1.29,2.57a.27.27,0,0,1-.16.38c-1.13.36-2.33.69-3.81,1.06a.27.27,0,0,0-.2.26v3.64a.27.27,0,0,0,.27.27h3.87a.27.27,0,0,1,.27.27v2.73a.27.27,0,0,1-.27.27h-3.87a.27.27,0,0,0-.27.27v.76a.27.27,0,0,0,.12.23,37.58,37.58,0,0,1,4.18,3,.26.26,0,0,1,.06.34l-1.67,2.65A.27.27,0,0,1,2607.61,690.18Zm15.34,2.67v8.07a.27.27,0,0,1-.27.27h-3.28a.27.27,0,0,1-.27-.27v-7.43a.27.27,0,0,0-.31-.27l-9.89,1.49a.27.27,0,0,1-.31-.23l-.5-3.19a.27.27,0,0,1,.23-.31l10.54-1.44a.26.26,0,0,0,.24-.27V671.34a.28.28,0,0,1,.27-.28h3.28a.28.28,0,0,1,.27.28v17.34a.27.27,0,0,0,.31.26l2.64-.37a.28.28,0,0,1,.31.25l.2,3.06a.28.28,0,0,1-.24.28l-3,.43A.26.26,0,0,0,2623,692.85Zm-6.81-12.68a70,70,0,0,0-6-4,.28.28,0,0,1-.08-.39l1.59-2.24a.26.26,0,0,1,.35-.08c1.7,1,3.61,2,6.1,3.56a.28.28,0,0,1,.09.38l-1.64,2.74A.26.26,0,0,1,2616.14,680.17Zm-.25,8.24c-2-1.67-3.71-2.88-5.67-4.3a.27.27,0,0,1-.06-.38l1.59-2.16a.27.27,0,0,1,.36-.06c2,1.29,3.71,2.33,5.91,3.89a.25.25,0,0,1,.07.37l-1.8,2.59A.28.28,0,0,1,2615.89,688.41Z" transform="translate(-2109.9 -655.78)"/><path class="cls-1" d="M2662.12,694.28a25.19,25.19,0,0,0,4.73-7.93,2.44,2.44,0,0,0,.1-.44v-2.66a.29.29,0,0,0-.28-.28h-5.92a.29.29,0,0,1-.28-.28v-3.4a.29.29,0,0,1,.28-.28h7.09a.27.27,0,0,0,.28-.28v-2.9a.27.27,0,0,0-.28-.28h-7.09a.29.29,0,0,1-.28-.29v-3.62a.28.28,0,0,0-.28-.28h-3.3a.28.28,0,0,0-.28.28v3.62a.29.29,0,0,1-.28.29h-6a.27.27,0,0,0-.28.28v1a.29.29,0,0,1-.28.29H2647a.29.29,0,0,1-.28-.29V671.7a.28.28,0,0,0-.28-.28h-3.13a.28.28,0,0,0-.28.28v5.13a.29.29,0,0,1-.28.29h-3.56a.28.28,0,0,0-.29.28v2.93a.28.28,0,0,0,.29.28h3.56a.29.29,0,0,1,.28.29v5.32a.28.28,0,0,1-.22.27c-1.3.31-2.53.58-3.78.79a.28.28,0,0,0-.23.3l.34,3.44a.27.27,0,0,0,.34.25c1.05-.25,2.05-.53,3.19-.86a.28.28,0,0,1,.36.26v2.92h0c0,.23,0,.45,0,.68v.33h0a4.28,4.28,0,0,1-.39,2.43c-.14.15-.64.48-2.19.48h-.62a.29.29,0,0,0-.28.28V701a.29.29,0,0,0,.28.28h.62a6.53,6.53,0,0,0,4.84-1.58c1.46-1.48,1.45-3.52,1.43-5.34v-5.1a.27.27,0,0,1,.19-.26c1-.35,1.9-.7,2.74-1.07a.28.28,0,0,0,.16-.28l-.21-2.92a.28.28,0,0,0-.38-.24c-.67.25-1.35.47-2.13.72a.28.28,0,0,1-.37-.27v-4a.29.29,0,0,1,.28-.29h2.81a.27.27,0,0,0,.28-.28v-1a.29.29,0,0,1,.28-.28h5.95a.29.29,0,0,1,.28.28v3.4a.29.29,0,0,1-.28.28h-5.49a.28.28,0,0,0-.28.28v2.94a.28.28,0,0,0,.28.28h11.41a.28.28,0,0,1,.26.39,17.13,17.13,0,0,1-3.39,5.37.28.28,0,0,1-.39,0,22.75,22.75,0,0,1-3.65-4.13.29.29,0,0,0-.23-.12h-3.54a.29.29,0,0,0-.25.43,30.21,30.21,0,0,0,4.6,5.89.28.28,0,0,1-.07.44,23.51,23.51,0,0,1-7.21,2.31.28.28,0,0,0-.21.38l1.41,3.38a.3.3,0,0,0,.33.17,30.79,30.79,0,0,0,8.77-3.83.27.27,0,0,1,.31,0,29.18,29.18,0,0,0,7.39,3.73.27.27,0,0,0,.34-.15l1.56-3.48a.28.28,0,0,0-.2-.39,23.13,23.13,0,0,1-5.89-2.17A.28.28,0,0,1,2662.12,694.28Z" transform="translate(-2109.9 -655.78)"/><path class="cls-1" d="M2574.41,692l-2.69-.55a.32.32,0,0,0-.39.24,40.06,40.06,0,0,1-1.55,4.77.35.35,0,0,1-.27.22c-1.91.23-3.9.41-5.84.51a.32.32,0,0,0-.31.38l.47,2.8a.33.33,0,0,0,.37.27c4-.47,7.41-1.09,11.52-1.94a.33.33,0,0,0,.27-.32v-2.48a.33.33,0,0,0-.41-.32c-.58.14-1.17.25-1.88.39a.33.33,0,0,1-.36-.47,26.94,26.94,0,0,0,1.31-3.07A.33.33,0,0,0,2574.41,692Zm-6.64-13.47h-2.9a.33.33,0,0,0-.33.33v2.35a.33.33,0,0,0,.33.33h9.87a.33.33,0,0,0,.33-.33v-2.35a.33.33,0,0,0-.33-.33h-2.94a.33.33,0,0,1-.33-.33v-1.53a.33.33,0,0,1,.33-.33h3.07a.33.33,0,0,0,.33-.33v-2.35a.33.33,0,0,0-.33-.33h-3.07a.33.33,0,0,1-.33-.33v-1.6a.33.33,0,0,0-.33-.33h-2.71a.33.33,0,0,0-.33.33V673a.33.33,0,0,1-.33.33h-3.39a.33.33,0,0,0-.33.33V676a.33.33,0,0,0,.33.33h3.39a.33.33,0,0,1,.33.33v1.53A.33.33,0,0,1,2567.77,678.52Zm15.38,1h1.14a.33.33,0,0,0,.33-.33v-2.74a.33.33,0,0,0-.33-.33h-1.14a.33.33,0,0,1-.33-.33v-4.38a.33.33,0,0,0-.33-.33h-2.77a.33.33,0,0,0-.33.33v4.38a.33.33,0,0,1-.33.33h-2.81a.33.33,0,0,0-.33.33v2.74a.33.33,0,0,0,.33.33h2.81a.33.33,0,0,1,.33.33v7.07a.33.33,0,0,1-.65.09c-.37-1.2-.67-2.21-1.07-3.33a.34.34,0,0,0-.42-.2l-1.88.61a.33.33,0,0,1-.43-.31v-.49a.33.33,0,0,0-.33-.33h-9.45a.33.33,0,0,0-.33.33v1.46a.33.33,0,0,1-.58.22c-.78-.91-1.56-1.69-2.49-2.6a.35.35,0,0,1-.1-.24v-1.49a.33.33,0,0,1,.33-.33h1.63a.33.33,0,0,0,.33-.33v-2.68a.33.33,0,0,0-.33-.33H2562a.33.33,0,0,1-.33-.33v-5.23a.33.33,0,0,0-.33-.33h-2.77a.33.33,0,0,0-.33.33v5.23a.34.34,0,0,1-.34.33h-2.57a.33.33,0,0,0-.33.33V680a.33.33,0,0,0,.33.33H2557a.33.33,0,0,1,.32.4,42.11,42.11,0,0,1-3.3,9.21.32.32,0,0,0,0,.37l1.58,1.83a.33.33,0,0,0,.55-.08,33.3,33.3,0,0,0,1.36-3.58.33.33,0,0,1,.65.1v12.32a.33.33,0,0,0,.33.33h2.77a.33.33,0,0,0,.33-.33V686.92a.33.33,0,0,1,.62-.17c.29.51.52.94.72,1.35a.33.33,0,0,0,.58,0l.64-1a.33.33,0,0,1,.61.18v3.4a.33.33,0,0,0,.33.33h9.45a.33.33,0,0,0,.33-.33v-4.34a.33.33,0,0,1,.64-.1c.45,1.36.82,2.66,1.21,4.31a.33.33,0,0,0,.43.24l1.73-.61a.33.33,0,0,1,.44.31v2.07h0v1.8c0,1.28,0,2.31-.41,2.75a2.7,2.7,0,0,1-1.86.52.33.33,0,0,0-.32.33v2.89a.34.34,0,0,0,.34.33,5.84,5.84,0,0,0,4.28-1.54c1.44-1.46,1.42-3.5,1.4-5.31v-1.56h0V679.83A.33.33,0,0,1,2583.15,679.5Zm-11.68,8.7h-3.13a.32.32,0,0,1-.33-.33v-1.72a.32.32,0,0,1,.33-.33h3.13a.33.33,0,0,1,.33.33v1.72A.33.33,0,0,1,2571.47,688.2Zm-4.34,3.45-2.12.58a.32.32,0,0,0-.23.42c.4,1.21.69,2.29,1,3.66a.33.33,0,0,0,.41.24l2.25-.63a.34.34,0,0,0,.22-.43c-.5-1.51-.79-2.54-1.19-3.63A.33.33,0,0,0,2567.13,691.65Z" transform="translate(-2109.9 -655.78)"/><path class="cls-2" d="M2359.27,678v-6.84a.41.41,0,0,0-.41-.42h-40.34a.42.42,0,0,0-.42.42V678a.42.42,0,0,0,.42.42H2334a.09.09,0,0,1,.1.09V728a.41.41,0,0,0,.42.41h8.36a.41.41,0,0,0,.42-.41V678.48a.09.09,0,0,1,.09-.09h15.48A.41.41,0,0,0,2359.27,678Zm131.33,29.1c-2.41-1.75-5.21-2.54-11.5-3.26-3.39-.41-4.48-.74-5.64-1.32a4.05,4.05,0,0,1-2.07-3.72c0-3.4,2.36-5.27,6.63-5.27,3.81,0,6,1,8.33,4a.42.42,0,0,0,.54.11l5.93-3.48a.31.31,0,0,0,.1-.45c-3.29-5-8.08-7.26-15.54-7.26-9.28,0-14.39,4.54-14.39,12.79,0,3.74,1.17,6.59,3.48,8.48,2.08,1.75,4.78,2.63,10.31,3.35,5,.63,5.46.71,6.95,1.42a4.14,4.14,0,0,1,2.29,4c0,3.82-2.9,5.68-8.87,5.68-4.93,0-7.14-.9-9.78-4a.42.42,0,0,0-.54-.09l-5.76,3.58a.42.42,0,0,0-.14.57c2.91,4.67,8.47,7,16.53,7,11.41,0,16.95-4.13,16.95-12.63C2494.41,712.17,2493.06,708.79,2490.6,707.07Zm-114.56-19c-.28-.07-7-1.65-14.53,3.81-3,2.18-5.12,6.1-6.08,11.35a35.37,35.37,0,0,0-.55,7.3V728a.41.41,0,0,0,.41.41h8a.41.41,0,0,0,.41-.41V711.56c0-5.37,1.39-9.33,4.14-11.77a11.29,11.29,0,0,1,8.09-2.62.33.33,0,0,0,.25-.08.32.32,0,0,0,.11-.24v-8.47A.31.31,0,0,0,2376,688.07Zm22.87-1.69c-12.1,0-17.27,6-17.27,20.15v3.12c0,13.54,5.48,19.58,17.75,19.58,7.9,0,12.52-2.05,15.93-7.09a.33.33,0,0,0,0-.25.32.32,0,0,0-.15-.21l-6-3.55a.42.42,0,0,0-.55.11c-2.09,2.75-4.55,3.88-8.48,3.88-6.38,0-9.75-3.79-9.75-11v-8a13.41,13.41,0,0,1,1.55-6.39c1.38-2.38,3.59-3.44,7.16-3.44,5.65,0,8.63,3.37,8.63,9.75v.48H2397.5a.41.41,0,0,0-.4.31l-1.53,5.76a.35.35,0,0,0,.06.28.33.33,0,0,0,.25.13h19.88a.42.42,0,0,0,.42-.42v-3.1C2416.18,692.41,2411,686.38,2398.91,686.38Zm40.54,0c-12.11,0-17.27,6-17.27,20.15v3.12c0,13.54,5.47,19.58,17.75,19.58,7.9,0,12.52-2.05,15.93-7.09a.33.33,0,0,0,0-.25.36.36,0,0,0-.15-.21l-6-3.55a.42.42,0,0,0-.55.11c-2.09,2.75-4.56,3.88-8.48,3.88-6.38,0-9.76-3.79-9.76-11v-8a13.3,13.3,0,0,1,1.56-6.39c1.38-2.38,3.59-3.44,7.16-3.44,5.65,0,8.63,3.37,8.63,9.75v.48H2438a.43.43,0,0,0-.4.31l-1.52,5.76a.35.35,0,0,0,.06.28.31.31,0,0,0,.25.13h19.88a.42.42,0,0,0,.42-.42v-3.1C2456.72,692.41,2451.55,686.38,2439.45,686.38Z" transform="translate(-2109.9 -655.78)"/><path class="cls-1" d="M2145.1,700c-2.86-1.91-4.21-2.5-12-4.37C2124,693.38,2121,691,2121,685.74s3.49-8.23,9.35-8.23c5,0,8.62,1.67,10.93,5a.32.32,0,0,0,.44.08l6.39-4.15a.32.32,0,0,0,.1-.44c-3.25-5.28-9.34-8.07-17.62-8.07-11.56,0-18.47,6.07-18.47,16.23,0,9.19,4.64,13.94,16.56,16.94,8.25,2,8.25,2,10.12,3.31a7.45,7.45,0,0,1,3,6.37c0,5.76-4,8.8-11.43,8.8-6.4,0-10.88-2-13.32-5.93a.32.32,0,0,0-.2-.14.29.29,0,0,0-.24,0l-6.56,4.16a.32.32,0,0,0-.1.44c3.76,6.12,10.41,9.1,20.34,9.1,13.15,0,20.39-5.93,20.39-16.71C2150.68,706.64,2148.85,702.55,2145.1,700Z" transform="translate(-2109.9 -655.78)"/><path class="cls-1" d="M2175.85,686.38c-4.78,0-8,1-11,3.57-.07-.29-.17-.67-.28-1a8.85,8.85,0,0,0-.75-1.6.33.33,0,0,0-.28-.15h-7.14a.33.33,0,0,0-.27.15.35.35,0,0,0,0,.3,13.86,13.86,0,0,1,.93,3.51,33.14,33.14,0,0,1,.19,4.56v50.4a.32.32,0,0,0,.32.32h8.15a.32.32,0,0,0,.32-.32V726.35a15.91,15.91,0,0,0,9.84,2.88c10.78,0,15.59-5.67,15.59-18.39v-6.07C2191.44,692.05,2186.63,686.38,2175.85,686.38ZM2166,704.13c0-7.1,2.75-10.55,8.4-10.55s8.31,3.62,8.31,11.75v4.95c0,8.13-2.56,11.76-8.31,11.76s-8.4-3.46-8.4-10.56Z" transform="translate(-2109.9 -655.78)"/><path class="cls-1" d="M2277.61,694.42c-2-5.33-6.64-8-13.89-8-5,0-8.24,1.25-10.79,4.27V687.5a.34.34,0,0,0-.1-.23.31.31,0,0,0-.22-.09h-6.89a.32.32,0,0,0-.32.32v40.61a.32.32,0,0,0,.32.32h8.16a.32.32,0,0,0,.32-.32V707.33c0-9.73,2.21-13.35,8.15-13.35,5.52,0,7.68,3.29,7.68,11.75v22.38a.32.32,0,0,0,.32.32h8.15a.32.32,0,0,0,.32-.32V704.85C2278.83,700.08,2278.46,696.87,2277.61,694.42Z" transform="translate(-2109.9 -655.78)"/><path class="cls-1" d="M2321.08,687.34a.3.3,0,0,0-.27-.16h-7.13a.31.31,0,0,0-.26.14,4.83,4.83,0,0,0-.69,1.74c0,.21-.11.63-.17,1-2.84-2.63-6-3.67-11.22-3.67-10.67,0-15.43,5.67-15.43,18.39v6.07c0,12.72,4.73,18.39,15.35,18.39,4.51,0,7.59-.89,10.13-3l-.06,2.15c-.23,8.25-3.1,11.76-9.59,11.76-3.83,0-6-1.07-8.13-4.1a.33.33,0,0,0-.43-.09l-6.07,3.52a.28.28,0,0,0-.15.2.29.29,0,0,0,0,.24c3.16,5,7.8,7.27,15.06,7.27,12.16,0,18.07-6.43,18.07-19.67V692.79a24.73,24.73,0,0,1,.23-2.85,7.74,7.74,0,0,1,.73-2.28A.33.33,0,0,0,2321.08,687.34Zm-9.75,16.79v7.35c0,7.1-2.74,10.56-8.39,10.56s-8.31-3.63-8.31-11.76v-4.95c0-8.13,2.56-11.75,8.31-11.75S2311.33,697,2311.33,704.13Z" transform="translate(-2109.9 -655.78)"/><path class="cls-1" d="M2220,688.07c-.28-.07-7-1.65-14.53,3.81-3,2.18-5.12,6.1-6.08,11.35a35.37,35.37,0,0,0-.55,7.3v17.58a.32.32,0,0,0,.32.32h8.18a.32.32,0,0,0,.32-.32V711.56c0-11.41,6.28-13.88,10-14.34a.3.3,0,0,0,.27-.23l2.28-8.49a.5.5,0,0,0,0-.12A.31.31,0,0,0,2220,688.07Z" transform="translate(-2109.9 -655.78)"/><path class="cls-3" d="M2219.59,728.43h7.59a.41.41,0,0,0,.4-.3l10.83-40.43a.41.41,0,0,0-.39-.52h-7.6a.42.42,0,0,0-.4.31l-10.83,40.43A.41.41,0,0,0,2219.59,728.43Z" transform="translate(-2109.9 -655.78)"/><path class="cls-4" d="M2226.81,670.18a.34.34,0,0,0,.33.43h2.62c3.83,0,4.16,3.08,3.87,4.75v0l-.69,2.63a.34.34,0,0,0,.32.43h6.29a.34.34,0,0,0,.32-.25l.77-2.82v0c.6-1.66,2.18-4.75,6-4.75h3.21a.34.34,0,0,0,.33-.25l1.69-6.31a.34.34,0,0,0-.33-.42h-3c-3.84,0-3.77-3.09-3.47-4.76v0l.7-2.64a.33.33,0,0,0-.33-.42h-6.28a.34.34,0,0,0-.33.25l-.76,2.81v0a7,7,0,0,1-6.42,4.76h-2.8a.33.33,0,0,0-.33.25Z" transform="translate(-2109.9 -655.78)"/></svg>