<svg id="圖層_1" data-name="圖層 1" xmlns="http://www.w3.org/2000/svg" viewBox="0 0 12.28 71.97"><defs><style>.cls-1{isolation:isolate;}.cls-2{fill:#6f6f6f;}</style></defs><title>scroll</title><g class="cls-1"><g class="cls-1"><path class="cls-2" d="M2.9,3.75,4.55,5.11A6.11,6.11,0,0,0,3.18,8.75c0,1.24.42,2.33,1.29,2.33s1.26-1,1.68-2.28l.59-1.69C7.19,5.79,8.21,4.3,10,4.3c2,0,3.42,1.88,3.42,4.5a6.45,6.45,0,0,1-1.57,4.37l-1.55-1.25a5.16,5.16,0,0,0,1.09-3.15c0-1.09-.4-2.08-1.26-2.08S8.93,7.84,8.55,9L8,10.69c-.53,1.57-1.54,2.79-3.3,2.79-2,0-3.53-1.81-3.53-4.76A7.54,7.54,0,0,1,2.9,3.75Z" transform="translate(-1.14 -3.75)"/><path class="cls-2" d="M7.2,16.27c3.91,0,6.21,2.52,6.21,6a5.74,5.74,0,0,1-1.53,3.94L10.34,25a3.94,3.94,0,0,0,1-2.6c0-2.21-1.55-3.65-4.1-3.65S3.2,20.16,3.2,22.37a4.23,4.23,0,0,0,1.22,2.88L2.88,26.52a5.65,5.65,0,0,1-1.74-4.24C1.14,18.85,3.26,16.27,7.2,16.27Z" transform="translate(-1.14 -3.75)"/><path class="cls-2" d="M13.22,29.68V34c0,2.84-.88,5-3.6,5a3.4,3.4,0,0,1-3.39-2.64l-4.9,3.25V37L5.81,34.1V31.92H1.33V29.68ZM7.68,33.84c0,1.84.64,2.85,1.94,2.85s1.73-1,1.73-2.85V31.92H7.68Z" transform="translate(-1.14 -3.75)"/><path class="cls-2" d="M7.33,41.89c3.86,0,6.08,2.42,6.08,5.87s-2.24,5.86-6.08,5.86-6.19-2.27-6.19-5.86C1.14,44.34,3.47,41.89,7.33,41.89Zm0,9.33c2.53,0,4.05-1.36,4.05-3.46s-1.52-3.45-4.05-3.45-4.15,1.37-4.15,3.45S4.79,51.22,7.33,51.22Z" transform="translate(-1.14 -3.75)"/><path class="cls-2" d="M13.22,56.9v2.37H3.31v5.66h-2v-8Z" transform="translate(-1.14 -3.75)"/><path class="cls-2" d="M13.22,67.68v2.37H3.31v5.67h-2v-8Z" transform="translate(-1.14 -3.75)"/></g></g></svg>