<svg id="圖層_1" data-name="圖層 1" xmlns="http://www.w3.org/2000/svg" viewBox="0 0 52.3 47.19"><defs><style>.cls-1{fill:#cfe338;}</style></defs><title>spark</title><path class="cls-1" d="M400.16,552a.71.71,0,0,0,.68.89h5.46c8,0,8.69,6.41,8.08,9.89,0,0,0,0,0,.07l-1.45,5.49a.7.7,0,0,0,.68.88h13.1a.7.7,0,0,0,.68-.52l1.6-5.85a.11.11,0,0,1,0-.06c1.24-3.48,4.55-9.9,12.54-9.9h6.68a.71.71,0,0,0,.68-.53l3.52-13.11a.7.7,0,0,0-.68-.89h-6.3c-8,0-7.85-6.42-7.23-9.89,0,0,0,0,0-.07l1.45-5.49a.7.7,0,0,0-.68-.88h-13.1a.71.71,0,0,0-.68.52l-1.59,5.85a.14.14,0,0,0,0,.07c-1.25,3.47-5.4,9.89-13.39,9.89h-5.84a.71.71,0,0,0-.68.52Z" transform="translate(-400.14 -522.07)"/></svg>